<svg xmlns="http://www.w3.org/2000/svg" xmlns:xlink="http://www.w3.org/1999/xlink" version="1.1" style="" xml:space="preserve" width="600" height="600"><rect id="backgroundrect" width="100%" height="100%" x="0" y="0" fill="none" stroke="none"/>
	<g>
		<rect fill="#f8f9fa" stroke-dashoffset="" fill-rule="nonzero" x="0" y="0" width="600" height="600" style="color: rgb(248, 249, 250);" rx="100"/>
		<g>
			<path style="fill:#3C3A41;" d="M432.6167320175171,179.45059127807616 l-38.28,-124.822 c-2.722,-8.874 -12.74,-13.185 -21.025,-9.045 l-73.582,36.777 L226.7277320175171,45.60459127807617 c-8.292,-4.174 -18.34,0.137 -21.064,9.025 l-38.28,124.822 H432.6167320175171 z" id="svg_2"/>
			<path style="fill:#2B292C;" d="M394.3367320175171,54.62959127807617 c-2.722,-8.874 -12.74,-13.185 -21.025,-9.045 L299.9997320175171,82.22559127807617 v97.225 h132.617 L394.3367320175171,54.62959127807617 z" id="svg_3"/>
			<path style="fill:#3C3A41;" d="M549.877732017517,408.91759127807615 l-120,-105.346 c-2.734,-2.4 -6.245,-3.724 -9.878,-3.724 H179.9997320175171 c-3.633,0 -7.143,1.323 -9.877,3.724 l-120,105.346 c-7.176,6.299 -6.738,17.635 0.8770000000000003,23.365 l71.878,54.087 l-43.484,43.628 c-9.413,9.444 -2.748,25.691 10.606,25.691 h420 c13.311,0 20.05,-16.216 10.606,-25.691 l-43.484,-43.628 L548.9997320175171,432.28259127807615 C556.626732017517,426.5435912780762 557.0427320175171,415.2085912780762 549.877732017517,408.91759127807615 z" id="svg_4"/>
			<path style="fill:#2B292C;" d="M549.877732017517,408.91759127807615 l-120,-105.346 c-2.734,-2.4 -6.245,-3.724 -9.878,-3.724 H299.9997320175171 v255.841 h210 c13.311,0 20.05,-16.216 10.606,-25.691 l-43.484,-43.628 L548.9997320175171,432.28259127807615 C556.626732017517,426.54259127807615 557.0427320175171,415.2085912780762 549.877732017517,408.91759127807615 z" id="svg_5"/>
			<path style="fill:#3C3A41;" d="M299.9997320175171,294.8305912780762 c-82.071,0 -130.14,-26.522 -156.012,-48.772 c-29.07,-24.999 -37.858,-50.732 -38.219,-51.815 c-3.232,-9.731 3.995,-19.809 14.23,-19.809 h360 c10.225,0 17.466,10.066 14.23,19.809 c-0.36000000000000015,1.083 -9.148,26.816 -38.219,51.815 C430.1397320175171,268.30859127807616 382.0707320175171,294.8305912780762 299.9997320175171,294.8305912780762 z" id="svg_6"/>
			<path style="fill:#2B292C;" d="M479.9997320175171,174.43459127807617 H299.9997320175171 V294.8305912780762 c82.071,0 130.14,-26.522 156.012,-48.772 c29.07,-24.999 37.858,-50.732 38.219,-51.815 C497.4657320175171,184.50059127807617 490.2247320175171,174.43459127807617 479.9997320175171,174.43459127807617 z" id="svg_7"/>
			<path style="fill:#E1E4F9;" d="M210.6067320175171,394.4565912780762 c0.046000000000000034,5.055 -4.783,-5.977 75.841,153.322 c5.54,10.946 21.192,10.978 26.749,0 c79.734,-157.54 75.532,-147.784 75.605,-152.771 C338.48873201751707,442.29959127807615 260.5287320175171,441.9615912780762 210.6067320175171,394.4565912780762 z" id="svg_8"/>
			<path style="fill:#D6DAF6;" d="M388.8027320175171,395.00859127807615 c-25.041,23.537 -56.93,35.272 -88.803,35.269 v125.717 c5.239,-0.05900000000000003 10.451,-2.79 13.197,-8.216 C392.9307320175171,390.23959127807615 388.7287320175171,399.9945912780762 388.8027320175171,395.00859127807615 z" id="svg_9"/>
			<path style="fill:#FEB655;" d="M299.9997320175171,435.29259127807615 c-74.439,0 -135,-60.76 -135,-135.445 v-47.004 c0,-8.312 6.716,-15.049 15,-15.049 h240 c8.284,0 15,6.738 15,15.049 v47.004 C434.9997320175171,374.5315912780762 374.4387320175171,435.29259127807615 299.9997320175171,435.29259127807615 z" id="svg_10"/>
			<path style="fill:#FD9A2B;" d="M419.9997320175171,237.79359127807618 H299.9997320175171 v197.499 c74.439,0 135,-60.76 135,-135.445 v-47.004 C434.9997320175171,244.53159127807618 428.2837320175171,237.79359127807618 419.9997320175171,237.79359127807618 z" id="svg_11"/>
		</g>
	</g>
</svg>